<svg width="175" height="49" viewBox="0 0 175 49" fill="none" xmlns="http://www.w3.org/2000/svg">
<rect x="0.5" y="0.5" width="174" height="48" rx="3.5" fill="#F9F9F9"/>
<path d="M65.1147 30H72.7682V27.7159H67.9272V18.3636H65.1147V30ZM84.8739 24.1818C84.8739 20.3352 82.4421 18.2045 79.3171 18.2045C76.1808 18.2045 73.766 20.3352 73.766 24.1818C73.766 28.0114 76.1808 30.1591 79.3171 30.1591C82.4421 30.1591 84.8739 28.0284 84.8739 24.1818ZM81.9989 24.1818C81.9989 26.4602 80.9989 27.6932 79.3171 27.6932C77.641 27.6932 76.6353 26.4602 76.6353 24.1818C76.6353 21.9034 77.641 20.6705 79.3171 20.6705C80.9989 20.6705 81.9989 21.9034 81.9989 24.1818ZM94.2724 22.1648H97.1189C96.8349 19.8466 94.7667 18.2045 92.0735 18.2045C88.9655 18.2045 86.511 20.392 86.511 24.1989C86.511 27.8807 88.7724 30.1591 92.1076 30.1591C95.1019 30.1591 97.2439 28.3011 97.2439 25.1761V23.6364H92.2269V25.6875H94.5337C94.5053 26.9148 93.653 27.6932 92.1303 27.6932C90.386 27.6932 89.3803 26.4034 89.3803 24.1648C89.3803 21.9432 90.4428 20.6705 92.1303 20.6705C93.2553 20.6705 94.0224 21.2216 94.2724 22.1648ZM110.005 24.1818C110.005 20.3352 107.573 18.2045 104.448 18.2045C101.311 18.2045 98.8966 20.3352 98.8966 24.1818C98.8966 28.0114 101.311 30.1591 104.448 30.1591C107.573 30.1591 110.005 28.0284 110.005 24.1818ZM107.13 24.1818C107.13 26.4602 106.13 27.6932 104.448 27.6932C102.772 27.6932 101.766 26.4602 101.766 24.1818C101.766 21.9034 102.772 20.6705 104.448 20.6705C106.13 20.6705 107.13 21.9034 107.13 24.1818Z" fill="black"/>
<rect x="0.5" y="0.5" width="174" height="48" rx="3.5" stroke="#777777"/>
</svg>
